<?xml version="1.0" standalone="no"?>
<!DOCTYPE svg PUBLIC "-//W3C//DTD SVG 20010904//EN"
 "http://www.w3.org/TR/2001/REC-SVG-20010904/DTD/svg10.dtd">
<svg version="1.0" xmlns="http://www.w3.org/2000/svg"
 width="300.000000pt" height="300.000000pt" viewBox="0 0 300.000000 300.000000"
 preserveAspectRatio="xMidYMid meet">
<metadata>
Created by potrace 1.14, written by Peter Selinger 2001-2017
</metadata>
<g transform="translate(0.000000,300.000000) scale(0.100000,-0.100000)"
fill="#000000" stroke="none">
<path d="M2727 2924 c-1 -1 -29 -4 -62 -7 -413 -39 -897 -224 -1210 -462 l-80
-61 -60 23 c-133 53 -255 66 -365 39 -132 -31 -208 -85 -341 -241 -52 -60 -98
-115 -104 -121 -5 -6 -26 -30 -45 -54 -19 -24 -40 -48 -46 -54 -56 -58 -104
-130 -104 -157 0 -62 23 -85 122 -123 212 -81 253 -96 263 -96 39 -1 34 -20
-50 -182 -95 -183 -107 -229 -78 -291 11 -22 125 -145 278 -297 279 -280 306
-300 381 -285 37 7 180 74 301 142 35 19 65 34 67 32 1 -2 31 -83 66 -179 72
-201 78 -212 119 -230 42 -17 89 -6 132 33 56 49 94 81 224 191 222 187 276
257 314 406 26 103 19 197 -22 323 l-34 101 67 90 c203 275 348 617 424 996
38 191 51 349 33 403 -14 43 -52 62 -124 63 -35 0 -65 -1 -66 -2z m-645 -701
c184 -82 225 -344 75 -480 -148 -134 -382 -87 -467 93 -59 127 -4 307 114 372
88 48 190 53 278 15z"/>
<path d="M345 1041 c-50 -32 -252 -244 -262 -276 -14 -43 2 -90 38 -116 32
-22 85 -28 114 -11 30 16 257 248 266 270 18 47 10 83 -25 118 -40 40 -84 45
-131 15z"/>
<path d="M645 779 c-33 -9 -414 -385 -416 -410 0 -8 -2 -23 -4 -33 -7 -36 21
-82 60 -100 69 -33 84 -24 291 184 103 105 194 200 200 212 7 12 10 38 8 58
-8 63 -75 106 -139 89z"/>
<path d="M910 503 c-8 -4 -73 -63 -143 -133 -114 -113 -129 -132 -134 -168 -6
-48 23 -106 60 -116 76 -20 91 -11 255 154 103 104 114 120 114 164 0 74 -80
127 -152 99z"/>
</g>
</svg>
