<?xml version="1.0" encoding="UTF-8"?>
<svg width="100pt" height="100pt" version="1.1" viewBox="0 0 100 100" xmlns="http://www.w3.org/2000/svg">
 <path d="m78.879 48.957-28.879-17.195-28.879 17.195c-4.6602 2.6953-10.625 1.1445-13.379-3.4844-2.7578-4.6289-1.2773-10.609 3.3125-13.422l37.344-22.234c0.98828-0.58594 2.2148-0.58594 3.1992 0l37.348 22.234c10.969 6.7969 1.1562 23.398-10.066 16.906zm-3.1953 5.3711-25.684-15.293-25.684 15.289c-1.7148 1.0039-3.6016 1.668-5.5664 1.9609v28.09c0 5.1758 4.1992 9.375 9.375 9.375h9.375v-28.125c0-3.4531 2.7969-6.25 6.25-6.25h12.5c1.6562 0 3.2461 0.66016 4.418 1.832s1.832 2.7617 1.832 4.418v28.125h9.375c5.1758 0 9.375-4.1992 9.375-9.375v-28.023c-1.9648-0.32422-3.8516-1.0117-5.5664-2.0234zm5.5664-34.133v-7.6953c-0.003906-3.4492-2.8008-6.2461-6.25-6.25h-6.25c-2.2773 0.007812-4.3672 1.2578-5.4531 3.2578z"/>
</svg>
